# Blender 4.0.2
# www.blender.org
mtllib balk_corner.mtl
o balk_corner
v 0.564896 2.200019 -0.024000
v 0.564896 2.200019 0.024000
v 0.000625 1.635748 -0.024000
v 0.000625 1.635748 0.024000
v 0.353886 2.199726 -0.025000
v 0.563188 2.199726 -0.025000
v 0.000918 1.846758 -0.025000
v 0.000917 1.637455 -0.025000
v 0.000918 1.846758 -0.025000
v 0.563188 2.199726 -0.025000
v 0.000625 1.847880 -0.024000
v 0.000625 1.847880 0.024000
v 0.352764 2.200019 -0.024000
v 0.352764 2.200019 0.024000
v 0.000918 1.846758 0.025000
v 0.000917 1.637455 0.025000
v 0.353886 2.199726 0.025000
v 0.563188 2.199726 0.025000
v 0.353886 2.199726 0.025000
v 0.000917 1.637455 0.025000
v 0.354471 2.200726 -0.024000
v 0.354471 2.200726 0.024000
v 0.564603 2.200726 -0.024000
v 0.564603 2.200726 0.024000
v -0.000082 1.846173 0.024000
v -0.000082 1.846173 -0.024000
v -0.000083 1.636041 0.024000
v -0.000083 1.636041 -0.024000
v 0.563188 2.199726 0.025000
v 0.564896 2.200019 0.024000
v 0.564603 2.200726 0.024000
v 0.563188 2.199726 -0.025000
v 0.564603 2.200726 -0.024000
v 0.564896 2.200019 -0.024000
v -0.000083 1.636041 0.024000
v 0.000625 1.635748 0.024000
v 0.000917 1.637455 0.025000
v -0.000083 1.636041 -0.024000
v 0.000917 1.637455 -0.025000
v 0.000625 1.635748 -0.024000
v 0.000625 1.847880 -0.024000
v 0.000918 1.846758 -0.025000
v -0.000082 1.846173 -0.024000
v 0.352764 2.200019 -0.024000
v 0.354471 2.200726 -0.024000
v 0.353886 2.199726 -0.025000
v 0.352764 2.200019 0.024000
v 0.353886 2.199726 0.025000
v 0.354471 2.200726 0.024000
v 0.000625 1.847880 0.024000
v -0.000082 1.846173 0.024000
v 0.000918 1.846758 0.025000
v 0.564603 2.200726 0.024000
v 0.564896 2.200019 0.024000
v 0.564603 2.200726 -0.024000
v 0.564896 2.200019 -0.024000
v 0.000625 1.635748 0.024000
v -0.000083 1.636041 0.024000
v 0.000625 1.635748 -0.024000
v 0.000917 1.637455 0.025000
v 0.000625 1.635748 0.024000
v 0.563188 2.199726 0.025000
v 0.564896 2.200019 0.024000
v 0.563188 2.199726 0.025000
v 0.000625 1.635748 0.024000
v 0.000625 1.635748 -0.024000
v 0.000917 1.637455 -0.025000
v 0.564896 2.200019 -0.024000
v -0.000082 1.846173 -0.024000
v 0.000918 1.846758 -0.025000
v -0.000083 1.636041 -0.024000
v 0.000917 1.637455 -0.025000
v 0.352764 2.200019 -0.024000
v 0.353886 2.199726 -0.025000
v 0.000625 1.847880 -0.024000
v 0.000918 1.846758 -0.025000
v 0.564603 2.200726 -0.024000
v 0.563188 2.199726 -0.025000
v 0.354471 2.200726 -0.024000
v 0.353886 2.199726 -0.025000
v 0.354471 2.200726 -0.024000
v 0.563188 2.199726 -0.025000
v 0.352764 2.200019 0.024000
v 0.354471 2.200726 0.024000
v 0.352764 2.200019 -0.024000
v -0.000082 1.846173 0.024000
v 0.000625 1.847880 0.024000
v -0.000082 1.846173 -0.024000
v 0.000625 1.847880 -0.024000
v 0.353886 2.199726 0.025000
v 0.352764 2.200019 0.024000
v 0.000918 1.846758 0.025000
v 0.000625 1.847880 0.024000
v 0.354471 2.200726 0.024000
v 0.353886 2.199726 0.025000
v 0.564603 2.200726 0.024000
v 0.563188 2.199726 0.025000
v -0.000083 1.636041 0.024000
v 0.000917 1.637455 0.025000
v -0.000082 1.846173 0.024000
v 0.000918 1.846758 0.025000
v -0.000082 1.846173 0.024000
v 0.000917 1.637455 0.025000
v -0.000083 1.636041 -0.024000
v 0.563188 2.199726 -0.025000
v 0.564896 2.200019 -0.024000
v 0.000917 1.637455 -0.025000
vn 0.7071 -0.7071 -0.0000
vn -0.0000 -0.0000 -1.0000
vn -0.7071 0.7071 -0.0000
vn -0.0000 -0.0000 1.0000
vn -0.0000 1.0000 -0.0000
vn -1.0000 -0.0000 -0.0000
vn 0.4703 0.1950 0.8607
vn 0.4703 0.1950 -0.8607
vn -0.1948 -0.4708 0.8605
vn -0.1948 -0.4708 -0.8605
vn -0.7569 0.3135 -0.5735
vn -0.3131 0.7571 -0.5733
vn -0.3131 0.7571 0.5733
vn -0.7569 0.3135 0.5735
vn 0.9238 0.3828 -0.0000
vn -0.3824 -0.9240 -0.0000
vn 0.4999 -0.4999 0.7073
vn 0.5001 -0.5001 -0.7070
vn -0.7071 -0.0000 -0.7071
vn -0.4999 0.4999 -0.7073
vn -0.0000 0.7070 -0.7072
vn -0.3827 0.9239 -0.0000
vn -0.9239 0.3826 -0.0000
vn -0.9239 0.3827 -0.0000
vn -0.4999 0.4999 0.7073
vn -0.0000 0.7071 0.7072
vn -0.0000 0.7070 0.7072
vn -0.7071 -0.0000 0.7071
vn -0.3826 -0.9239 -0.0000
vn 0.5000 -0.5000 -0.7070
vt 0.013258 0.217047
vt 0.013179 0.277032
vt 1.010485 0.218365
vt 1.010406 0.278349
vt 0.197456 0.017800
vt 0.015198 0.199677
vt 0.811531 0.018441
vt 0.993409 0.200699
vt 0.825330 0.546998
vt 0.825385 0.488300
vt 0.216343 0.546425
vt 0.216399 0.487727
vt 0.826208 0.477596
vt 1.008466 0.295719
vt 0.212133 0.476955
vt 0.030256 0.294698
vt 0.973626 0.900068
vt 0.938385 0.827148
vt 0.758536 1.007204
vt 0.727326 0.948476
vt 0.779047 0.836442
vt 0.807507 0.893525
vt 0.943528 0.730679
vt 0.967922 0.779607
vt 0.727357 0.944060
vt 0.725908 0.948581
vt 0.762393 1.009708
vt 0.757537 1.008456
vt 0.931299 0.733381
vt 0.935365 0.741536
vt 0.958404 0.787746
vt 0.974698 0.793198
vt 0.844223 0.858250
vt 0.796665 0.871779
vt 0.977133 0.898972
vt 0.976251 0.902286
vt 0.941433 0.824850
vt 0.938050 0.823596
vt 0.780402 0.839160
vt 0.757301 0.847283
vt 0.215520 0.557129
vt 0.829595 0.557771
s 0
usemtl Checker
f 1/1/1 2/2/1 3/3/1
f 4/4/1 3/3/1 2/2/1
f 5/5/2 6/6/2 7/7/2
f 8/8/2 9/7/2 10/6/2
f 11/9/3 12/10/3 13/11/3
f 14/12/3 13/11/3 12/10/3
f 15/13/4 16/14/4 17/15/4
f 18/16/4 19/15/4 20/14/4
f 21/17/5 22/18/5 23/19/5
f 24/20/5 23/19/5 22/18/5
f 25/21/6 26/22/6 27/23/6
f 28/24/6 27/23/6 26/22/6
f 29/25/7 30/26/7 31/20/7
f 32/27/8 33/19/8 34/28/8
f 35/23/9 36/29/9 37/30/9
f 38/24/10 39/31/10 40/32/10
f 41/33/11 42/34/11 43/22/11
f 44/35/12 45/17/12 46/36/12
f 47/37/13 48/38/13 49/18/13
f 50/39/14 51/21/14 52/40/14
f 53/20/15 54/26/15 55/19/15
f 56/28/15 55/19/15 54/26/15
f 57/29/16 58/23/16 59/32/16
f 60/14/17 61/4/17 62/16/17
f 63/2/17 64/16/17 65/4/17
f 66/3/18 67/8/18 68/1/18
f 69/22/19 70/34/19 71/24/19
f 72/31/19 71/24/19 70/34/19
f 73/11/20 74/41/20 75/9/20
f 76/42/20 75/9/20 74/41/20
f 77/19/21 78/27/21 79/17/21
f 80/36/21 81/17/21 82/27/21
f 83/37/22 84/18/22 85/35/22
f 86/21/23 87/39/23 88/22/23
f 89/33/24 88/22/24 87/39/24
f 90/15/25 91/12/25 92/13/25
f 93/10/25 92/13/25 91/12/25
f 94/18/26 95/38/26 96/20/26
f 97/25/27 96/20/27 95/38/27
f 98/23/28 99/30/28 100/21/28
f 101/40/28 102/21/28 103/30/28
f 104/24/29 59/32/29 58/23/29
f 105/6/30 106/1/30 107/8/30
