# Blender 4.0.2
# www.blender.org
mtllib balk_150x150x2200.mtl
o balk_150x150x2200
v -0.022994 1.845447 -0.074536
v -0.022994 1.847154 -0.075243
v -0.023994 1.846033 -0.075536
v 0.074000 2.200006 0.074480
v 0.074000 2.200001 -0.073519
v 0.075000 2.199002 -0.073519
v 0.075000 2.199005 0.074480
v -0.074000 0.000004 0.074536
v -0.075000 0.001004 0.074536
v -0.075000 0.001000 -0.073464
v 0.075000 0.001000 -0.073464
v 0.075000 2.199002 -0.073519
v 0.074000 2.199002 -0.074519
v 0.074000 0.001000 -0.074464
v 0.075000 2.199005 0.074480
v 0.074000 2.199005 0.075480
v 0.074000 0.001004 0.075536
v 0.075000 0.001004 0.074536
v -0.075000 2.199002 -0.073519
v -0.075000 0.001000 -0.073464
v -0.074000 0.001000 -0.074464
v -0.074000 2.199002 -0.074519
v -0.074000 2.199005 0.075480
v -0.075000 2.199005 0.074480
v -0.075000 0.001004 0.074536
v -0.074000 0.001004 0.075536
v 0.074000 2.200001 -0.073519
v -0.074000 2.200001 -0.073519
v -0.074000 2.199002 -0.074519
v 0.074000 2.199002 -0.074519
v 0.074000 2.199005 0.075480
v 0.074000 2.200006 0.074480
v -0.074000 2.200006 0.074480
v -0.074000 2.199005 0.075480
v -0.075000 2.199005 0.074480
v -0.074000 2.200006 0.074480
v -0.074000 2.200001 -0.073519
v -0.075000 2.199002 -0.073519
v -0.074000 0.001004 0.075536
v -0.074000 0.000004 0.074536
v 0.074000 0.000004 0.074536
v 0.074000 0.001004 0.075536
v 0.074000 0.000000 -0.073464
v 0.074000 0.000004 0.074536
v 0.075000 0.001004 0.074536
v 0.075000 0.001000 -0.073464
v -0.074000 0.000000 -0.073464
v 0.074000 0.000000 -0.073464
v 0.074000 0.001000 -0.074464
v -0.074000 0.001000 -0.074464
v -0.074000 2.199005 0.075480
v -0.074000 2.200006 0.074480
v -0.075000 2.199005 0.074480
v 0.074000 0.000004 0.074536
v 0.075000 0.001004 0.074536
v 0.074000 0.001004 0.075536
v 0.074000 2.200006 0.074480
v 0.074000 2.199005 0.075480
v 0.075000 2.199005 0.074480
v 0.075000 2.199002 -0.073519
v 0.074000 2.200001 -0.073519
v 0.074000 2.199002 -0.074519
v -0.074000 2.199002 -0.074519
v -0.074000 2.200001 -0.073519
v -0.075000 2.199002 -0.073519
v 0.074000 0.000000 -0.073464
v 0.075000 0.001000 -0.073464
v 0.074000 0.001000 -0.074464
v -0.074000 0.000004 0.074536
v -0.074000 0.001004 0.075536
v -0.075000 0.001004 0.074536
v -0.074000 0.000000 -0.073464
v -0.074000 0.001000 -0.074464
v -0.075000 0.001000 -0.073464
v 0.075000 0.001000 -0.073464
v 0.075000 0.001004 0.074536
v 0.075000 2.199005 0.074480
v 0.075000 2.199005 0.074480
v 0.075000 2.199002 -0.073519
v 0.075000 0.001000 -0.073464
v -0.074000 2.199002 -0.074519
v -0.074000 0.001000 -0.074464
v 0.074000 0.001000 -0.074464
v 0.074000 2.199005 0.075480
v -0.074000 2.199005 0.075480
v -0.074000 0.001004 0.075536
v 0.074000 0.001004 0.075536
v -0.075000 2.199002 -0.073519
v -0.075000 0.001000 -0.073464
v -0.075000 0.001004 0.074536
v -0.075000 0.001004 0.074536
v -0.075000 2.199005 0.074480
v -0.075000 2.199002 -0.073519
v 0.074000 2.200001 -0.073519
v -0.074000 2.200001 -0.073519
v -0.074000 2.200006 0.074480
v 0.074000 2.200006 0.074480
v -0.074000 0.000004 0.074536
v -0.074000 0.000000 -0.073464
v 0.074000 0.000000 -0.073464
v 0.074000 0.000000 -0.073464
v 0.074000 0.000004 0.074536
v -0.074000 0.000004 0.074536
v 0.074000 2.199002 -0.074519
vn -0.5732 0.3135 0.7570
vn -0.7076 -0.7066 -0.0000
vn -0.7068 -0.7074 -0.0000
vn -0.7067 -0.7075 -0.0000
vn -0.7074 -0.7068 -0.0000
vn -0.7071 -0.7071 -0.0000
vn 0.7071 -0.0000 -0.7071
vn 0.7071 -0.0000 0.7071
vn -0.7071 -0.0000 0.7071
vn -0.0000 -0.7075 0.7067
vn -0.0000 0.7067 0.7075
vn -0.7075 0.7067 -0.0000
vn -0.7069 0.7074 -0.0000
vn -0.7067 0.7075 -0.0000
vn -0.7075 0.7068 -0.0000
vn -0.0000 -0.7071 0.7071
vn -0.7071 0.7071 -0.0000
vn -0.0000 0.7071 0.7071
vn -0.5776 0.5769 0.5776
vn 0.5773 -0.5774 0.5774
vn 0.5776 0.5769 0.5776
vn -0.5771 -0.5778 0.5772
vn 0.5771 -0.5778 0.5772
vn -0.5774 0.5773 0.5774
vn -0.5773 -0.5774 0.5774
vn 0.5774 0.5773 0.5774
vn 1.0000 -0.0000 -0.0000
vn -0.0000 -0.0000 -1.0000
vn -0.0000 -0.0000 1.0000
vn -1.0000 -0.0000 -0.0000
vn -0.0000 1.0000 -0.0000
vn -0.0000 -1.0000 -0.0000
vt 0.779047 0.836442
vt 0.780402 0.839160
vt 0.757301 0.847283
vt 0.929297 0.408243
vt 0.931705 0.341720
vt 0.930517 0.341443
vt 0.928050 0.408440
vt 0.998239 0.479204
vt 0.998489 0.480435
vt 0.931493 0.482456
vt 0.001169 0.086238
vt 0.999302 0.085124
vt 0.000896 0.103653
vt 0.999029 0.102539
vt 0.001094 0.019030
vt 0.001367 0.001615
vt 0.999500 0.000500
vt 0.999227 0.017915
vt 0.000698 0.188276
vt 0.998830 0.187162
vt 0.999104 0.169747
vt 0.000971 0.170861
vt 0.000500 0.272899
vt 0.000773 0.255484
vt 0.998905 0.254370
vt 0.998632 0.271786
vt 0.998253 0.342059
vt 0.998524 0.340864
vt 0.931499 0.340481
vt 0.929026 0.409438
vt 0.995845 0.408582
vt 0.996051 0.409821
vt 0.997033 0.408859
vt 0.999500 0.341861
vt 0.999437 0.479439
vt 0.998261 0.412638
vt 0.999500 0.412396
vt 0.931744 0.414685
vt 0.998489 0.411434
vt 0.931493 0.413454
vt 0.931721 0.481252
vt 0.930546 0.414451
vt 0.930483 0.481494
vt 0.000575 0.340107
vt 0.998707 0.338994
s 0
usemtl Checker
f 1/1/1 2/2/1 3/3/1
f 4/4/2 5/5/3 6/6/3
f 6/6/4 7/7/5 4/4/5
f 8/8/6 9/9/6 10/10/6
f 12/11/7 11/12/7 13/13/7
f 14/14/7 13/13/7 11/12/7
f 15/15/8 16/16/8 17/17/8
f 17/17/8 18/18/8 15/15/8
f 19/19/8 20/20/8 21/21/8
f 21/21/8 22/22/8 19/19/8
f 23/23/9 24/24/9 25/25/9
f 25/25/9 26/26/9 23/23/9
f 27/5/10 28/27/10 29/28/10
f 29/28/10 30/29/10 27/5/10
f 31/30/11 32/4/11 33/31/11
f 33/31/11 34/32/11 31/30/11
f 35/33/12 36/31/12 37/27/13
f 37/27/14 38/34/14 35/33/15
f 39/35/16 40/8/16 41/36/16
f 41/36/16 42/37/16 39/35/16
f 43/38/17 44/36/17 45/39/17
f 45/39/17 46/40/17 43/38/17
f 47/41/18 48/38/18 49/42/18
f 49/42/18 50/43/18 47/41/18
f 51/32/19 52/31/19 53/33/19
f 54/36/20 55/39/20 56/37/20
f 57/4/21 58/30/21 59/7/21
f 60/6/22 61/5/22 62/29/22
f 63/28/23 64/27/23 65/34/23
f 66/38/24 67/40/24 68/42/24
f 69/8/25 70/35/25 71/9/25
f 72/41/26 73/43/26 74/10/26
f 76/18/27 75/12/27 77/15/27
f 79/11/27 78/15/27 80/12/27
f 82/21/28 81/22/28 83/14/28
f 84/44/29 85/23/29 86/26/29
f 86/26/29 87/45/29 84/44/29
f 88/19/30 89/20/30 90/25/30
f 91/25/30 92/24/30 93/19/30
f 94/5/31 95/27/31 96/31/31
f 96/31/31 97/4/31 94/5/31
f 98/8/32 99/41/32 100/38/32
f 101/38/32 102/36/32 103/8/32
f 104/13/28 83/14/28 81/22/28
