# Blender 4.0.2
# www.blender.org
mtllib lodge_150x50x200.mtl
o lodge_150x50x200
v 0.200000 0.000000 0.025000
v 0.200000 0.000000 -0.025000
v 0.200000 0.150000 0.025000
v 0.200000 0.150000 -0.025000
v 0.000000 0.000000 0.025000
v 0.000000 0.000000 -0.025000
v 0.000000 0.150000 0.025000
v 0.000000 0.150000 -0.025000
vn 1.0000 -0.0000 -0.0000
vn -1.0000 -0.0000 -0.0000
vn -0.0000 -0.0000 1.0000
vn -0.0000 -1.0000 -0.0000
vn -0.0000 -0.0000 -1.0000
vn -0.0000 1.0000 -0.0000
vt 0.412500 0.312500
vt 0.287500 0.312500
vt 0.287500 -0.062500
vt 0.412500 -0.062500
vt 0.162500 0.312500
vt 0.162500 -0.062500
vt 0.975000 0.000000
vt 0.975000 0.375000
vt 0.475000 0.375000
vt 0.475000 0.000000
vt 0.975000 0.750000
vt 0.975000 0.875000
vt 0.475000 0.875000
vt 0.475000 0.750000
vt 0.975000 0.375000
vt 0.975000 0.750000
vt 0.975000 0.875000
vt 0.975000 1.000000
vt 0.475000 1.000000
s 0
usemtl Checker
f 1/1/1 2/2/1 4/3/1 3/4/1
f 5/5/2 7/6/2 8/3/2 6/2/2
f 1/7/3 3/8/3 7/9/3 5/10/3
f 2/11/4 1/12/4 5/13/4 6/14/4
f 4/15/5 2/16/5 6/14/5 8/9/5
f 3/17/6 4/18/6 8/19/6 7/13/6
