{
    "asset" : {
        "generator" : "Khronos glTF Blender I/O v1.8.19",
        "version" : "2.0"
    },
    "scene" : 0,
    "scenes" : [
        {
            "name" : "Scene",
            "nodes" : [
                0,
                1,
                2,
                3,
                4
            ]
        }
    ],
    "nodes" : [
        {
            "mesh" : 0,
            "name" : "Sphere111111111",
            "translation" : [
                -0.10726337879896164,
                0,
                0
            ]
        },
        {
            "mesh" : 1,
            "name" : "Sphere1111111111111",
            "translation" : [
                -0.23261988162994385,
                0,
                0
            ]
        },
        {
            "mesh" : 2,
            "name" : "Sphere1111",
            "translation" : [
                -0.35278069972991943,
                0,
                0
            ]
        },
        {
            "mesh" : 3,
            "name" : "111111111111111111111111",
            "rotation" : [
                0.7071068286895752,
                0,
                0,
                0.7071067094802856
            ]
        },
        {
            "mesh" : 4,
            "name" : "1111111111",
            "rotation" : [
                0.7071068286895752,
                0,
                0,
                0.7071067094802856
            ]
        }
    ],
    "materials" : [
        {
            "doubleSided" : true,
            "name" : "M_RoofEdge_1",
            "pbrMetallicRoughness" : {
                "baseColorFactor" : [
                    0.6477235555648804,
                    0.6477235555648804,
                    0.6477235555648804,
                    1
                ],
                "roughnessFactor" : 0.3499999940395355
            }
        },
        {
            "doubleSided" : true,
            "name" : "M_RoofEdge_2",
            "pbrMetallicRoughness" : {
                "baseColorFactor" : [
                    0.3316090703010559,
                    0.3316090703010559,
                    0.3316090703010559,
                    1
                ],
                "roughnessFactor" : 0.3499999940395355
            }
        },
        {
            "doubleSided" : true,
            "name" : "M_RoofEdge_3",
            "pbrMetallicRoughness" : {
                "baseColorFactor" : [
                    0.14229941368103027,
                    0.14229941368103027,
                    0.14229941368103027,
                    1
                ],
                "roughnessFactor" : 0.3499999940395355
            }
        }
    ],
    "meshes" : [
        {
            "name" : "Sphere",
            "primitives" : [
                {
                    "attributes" : {
                        "POSITION" : 0,
                        "NORMAL" : 1,
                        "TEXCOORD_0" : 2
                    },
                    "indices" : 3,
                    "material" : 0
                }
            ]
        },
        {
            "name" : "Sphere.001111111111",
            "primitives" : [
                {
                    "attributes" : {
                        "POSITION" : 4,
                        "NORMAL" : 5,
                        "TEXCOORD_0" : 6
                    },
                    "indices" : 3,
                    "material" : 1
                }
            ]
        },
        {
            "name" : "Sphere.00211111",
            "primitives" : [
                {
                    "attributes" : {
                        "POSITION" : 7,
                        "NORMAL" : 8,
                        "TEXCOORD_0" : 9
                    },
                    "indices" : 3,
                    "material" : 2
                }
            ]
        },
        {
            "name" : "roof_edge_1m.0031111111",
            "primitives" : [
                {
                    "attributes" : {
                        "POSITION" : 10,
                        "NORMAL" : 11,
                        "TEXCOORD_0" : 12
                    },
                    "indices" : 13,
                    "material" : 0
                }
            ]
        },
        {
            "name" : "roof_edge_1m.0041111111111",
            "primitives" : [
                {
                    "attributes" : {
                        "POSITION" : 14,
                        "NORMAL" : 15,
                        "TEXCOORD_0" : 16
                    },
                    "indices" : 17,
                    "material" : 0
                }
            ]
        }
    ],
    "accessors" : [
        {
            "bufferView" : 0,
            "componentType" : 5126,
            "count" : 559,
            "max" : [
                0.04999997839331627,
                0.05000000074505806,
                0.049999963492155075
            ],
            "min" : [
                -0.04999994859099388,
                -0.05000000074505806,
                -0.05000000074505806
            ],
            "type" : "VEC3"
        },
        {
            "bufferView" : 1,
            "componentType" : 5126,
            "count" : 559,
            "type" : "VEC3"
        },
        {
            "bufferView" : 2,
            "componentType" : 5126,
            "count" : 559,
            "type" : "VEC2"
        },
        {
            "bufferView" : 3,
            "componentType" : 5123,
            "count" : 2880,
            "type" : "SCALAR"
        },
        {
            "bufferView" : 4,
            "componentType" : 5126,
            "count" : 559,
            "max" : [
                0.04999997839331627,
                0.05000000074505806,
                0.049999963492155075
            ],
            "min" : [
                -0.04999994859099388,
                -0.05000000074505806,
                -0.05000000074505806
            ],
            "type" : "VEC3"
        },
        {
            "bufferView" : 5,
            "componentType" : 5126,
            "count" : 559,
            "type" : "VEC3"
        },
        {
            "bufferView" : 6,
            "componentType" : 5126,
            "count" : 559,
            "type" : "VEC2"
        },
        {
            "bufferView" : 7,
            "componentType" : 5126,
            "count" : 559,
            "max" : [
                0.04999997839331627,
                0.05000000074505806,
                0.049999963492155075
            ],
            "min" : [
                -0.04999994859099388,
                -0.05000000074505806,
                -0.05000000074505806
            ],
            "type" : "VEC3"
        },
        {
            "bufferView" : 8,
            "componentType" : 5126,
            "count" : 559,
            "type" : "VEC3"
        },
        {
            "bufferView" : 9,
            "componentType" : 5126,
            "count" : 559,
            "type" : "VEC2"
        },
        {
            "bufferView" : 10,
            "componentType" : 5126,
            "count" : 56,
            "max" : [
                0.08585800230503082,
                0.08585800230503082,
                0
            ],
            "min" : [
                -0.014141999185085297,
                -0.014142000116407871,
                -0.04999899864196777
            ],
            "type" : "VEC3"
        },
        {
            "bufferView" : 11,
            "componentType" : 5126,
            "count" : 56,
            "type" : "VEC3"
        },
        {
            "bufferView" : 12,
            "componentType" : 5126,
            "count" : 56,
            "type" : "VEC2"
        },
        {
            "bufferView" : 13,
            "componentType" : 5123,
            "count" : 168,
            "type" : "SCALAR"
        },
        {
            "bufferView" : 14,
            "componentType" : 5126,
            "count" : 33,
            "max" : [
                1,
                0.07262399792671204,
                0
            ],
            "min" : [
                0,
                -0.014142000116407871,
                -0.04999899864196777
            ],
            "type" : "VEC3"
        },
        {
            "bufferView" : 15,
            "componentType" : 5126,
            "count" : 33,
            "type" : "VEC3"
        },
        {
            "bufferView" : 16,
            "componentType" : 5126,
            "count" : 33,
            "type" : "VEC2"
        },
        {
            "bufferView" : 17,
            "componentType" : 5123,
            "count" : 120,
            "type" : "SCALAR"
        }
    ],
    "bufferViews" : [
        {
            "buffer" : 0,
            "byteLength" : 6708,
            "byteOffset" : 0
        },
        {
            "buffer" : 0,
            "byteLength" : 6708,
            "byteOffset" : 6708
        },
        {
            "buffer" : 0,
            "byteLength" : 4472,
            "byteOffset" : 13416
        },
        {
            "buffer" : 0,
            "byteLength" : 5760,
            "byteOffset" : 17888
        },
        {
            "buffer" : 0,
            "byteLength" : 6708,
            "byteOffset" : 23648
        },
        {
            "buffer" : 0,
            "byteLength" : 6708,
            "byteOffset" : 30356
        },
        {
            "buffer" : 0,
            "byteLength" : 4472,
            "byteOffset" : 37064
        },
        {
            "buffer" : 0,
            "byteLength" : 6708,
            "byteOffset" : 41536
        },
        {
            "buffer" : 0,
            "byteLength" : 6708,
            "byteOffset" : 48244
        },
        {
            "buffer" : 0,
            "byteLength" : 4472,
            "byteOffset" : 54952
        },
        {
            "buffer" : 0,
            "byteLength" : 672,
            "byteOffset" : 59424
        },
        {
            "buffer" : 0,
            "byteLength" : 672,
            "byteOffset" : 60096
        },
        {
            "buffer" : 0,
            "byteLength" : 448,
            "byteOffset" : 60768
        },
        {
            "buffer" : 0,
            "byteLength" : 336,
            "byteOffset" : 61216
        },
        {
            "buffer" : 0,
            "byteLength" : 396,
            "byteOffset" : 61552
        },
        {
            "buffer" : 0,
            "byteLength" : 396,
            "byteOffset" : 61948
        },
        {
            "buffer" : 0,
            "byteLength" : 264,
            "byteOffset" : 62344
        },
        {
            "buffer" : 0,
            "byteLength" : 240,
            "byteOffset" : 62608
        }
    ],
    "buffers" : [
        {
            "byteLength" : 62848,
            "uri" : "Edges.bin"
        }
    ]
}
