# Blender 3.1.0
# www.blender.org
o roof_edge_1m
v 1.000000 0.000000 0.000000
v 0.000000 0.020000 0.072624
v 1.000000 0.020000 0.072624
v 0.000000 0.000000 -0.012142
v 0.000000 0.002000 -0.014142
v 0.000000 0.000586 -0.013556
v 1.000000 0.000000 -0.012142
v 1.000000 0.002000 -0.014142
v 1.000000 0.000586 -0.013556
v 1.000000 0.049999 0.028000
v 1.000000 0.048848 0.031636
v 1.000000 0.049662 0.029893
v 1.000000 0.047999 -0.014142
v 1.000000 0.049999 -0.012142
v 1.000000 0.049413 -0.013556
v 0.000000 0.048848 0.031636
v 0.000000 0.049999 0.028000
v 0.000000 0.049662 0.029893
v 0.500000 0.000000 0.000000
v 0.500000 0.020000 0.072624
v 0.500000 0.002000 -0.014142
v 0.500000 0.000586 -0.013556
v 0.500000 0.000000 -0.012142
v 0.500000 0.047999 -0.014142
v 0.500000 0.049413 -0.013556
v 0.500000 0.049999 -0.012142
v 0.500000 0.048848 0.031636
v 0.500000 0.049662 0.029893
v 0.500000 0.049999 0.028000
v 0.000000 0.047999 -0.014142
v 0.000000 0.049413 -0.013556
v 0.000000 0.049999 -0.012142
v 0.000000 0.000000 0.000000
vn -0.0000 0.1951 -0.9808
vn -0.0000 -0.1951 -0.9808
vn -0.0000 0.8178 0.5755
vn -0.0000 0.8652 0.5014
vn -0.0000 0.9961 0.0880
vn -0.0000 0.9808 -0.1951
vn -0.0000 -1.0000 -0.0000
vn -0.0000 -0.9808 -0.1951
vn -0.0000 -0.7071 -0.7071
vn -0.0000 0.7071 -0.7071
vn -0.0000 0.9534 0.3019
vt 0.438814 -2.340579
vt -1.428730 -2.340895
vt -1.428720 -2.340895
vt 0.283310 -2.340850
vt 0.234636 -2.340895
vt 0.257696 -2.340895
vt 0.283310 -2.340851
vt 0.234636 -2.340895
vt 0.257696 -2.340895
vt -0.804688 -2.340895
vt -0.850808 -2.340895
vt -0.827748 -2.340895
vt -0.295727 -2.340895
vt -0.341847 -2.340895
vt -0.318787 -2.340895
vt -0.850819 -2.340895
vt -0.804698 -2.340895
vt -0.827759 -2.340895
vt 0.438814 2.847882
vt -1.428725 2.847567
vt 0.234636 2.847567
vt 0.257696 2.847567
vt 0.283310 2.847611
vt -0.295732 2.847567
vt -0.318792 2.847567
vt -0.341852 2.847567
vt -0.850813 2.847567
vt -0.827753 2.847567
vt -0.804693 2.847567
vt -0.295737 -2.340895
vt -0.318798 -2.340895
vt -0.341858 -2.340895
vt 0.438814 -2.340580
s 1
f 24/24/1 13/13/1 8/8/2 21/21/2
f 20/20/3 3/3/3 11/11/4 27/27/4
f 29/29/5 10/10/5 14/14/6 26/26/6
f 19/19/7 33/33/7 4/4/8 23/23/8
f 21/21/2 8/8/2 9/9/9 22/22/9
f 22/22/9 9/9/9 7/7/8 23/23/8
f 24/24/1 30/30/1 31/31/10 25/25/10
f 25/25/10 31/31/10 32/32/6 26/26/6
f 27/27/4 11/11/4 12/12/11 28/28/11
f 28/28/11 12/12/11 10/10/5 29/29/5
f 18/18/11 28/28/11 29/29/5 17/17/5
f 16/16/4 27/27/4 28/28/11 18/18/11
f 15/15/10 25/25/10 26/26/6 14/14/6
f 13/13/1 24/24/1 25/25/10 15/15/10
f 6/6/9 22/22/9 23/23/8 4/4/8
f 5/5/2 21/21/2 22/22/9 6/6/9
f 1/1/7 19/19/7 23/23/8 7/7/8
f 17/17/5 29/29/5 26/26/6 32/32/6
f 2/2/3 20/20/3 27/27/4 16/16/4
f 30/30/1 24/24/1 21/21/2 5/5/2
