# Blender 3.1.0
# www.blender.org
o daktrim_round_1m
v 0.000000 -0.000000 0.000000
v -0.000000 0.020000 0.072624
v 1.000000 0.000000 0.000000
v 1.000000 0.020000 0.072624
v -0.000000 0.039338 0.050749
v -0.000000 0.040000 0.049000
v 1.000000 0.040000 0.049000
v 1.000000 0.039338 0.050749
v 0.000000 0.016000 -0.040000
v 0.000000 -0.000000 -0.024000
v 0.000000 0.009877 -0.038782
v 0.000000 0.004686 -0.035314
v 0.000000 0.001218 -0.030123
v -0.000000 0.040000 -0.024000
v 0.000000 0.024000 -0.040000
v -0.000000 0.038782 -0.030123
v -0.000000 0.035314 -0.035314
v -0.000000 0.030123 -0.038782
v 1.000000 0.000000 -0.024000
v 1.000000 0.016000 -0.040000
v 1.000000 0.001218 -0.030123
v 1.000000 0.004686 -0.035314
v 1.000000 0.009877 -0.038782
v 1.000000 0.024000 -0.040000
v 1.000000 0.040000 -0.024000
v 1.000000 0.030123 -0.038782
v 1.000000 0.035314 -0.035314
v 1.000000 0.038782 -0.030123
vn -0.0000 0.9952 -0.0980
vn -0.0000 0.9837 0.1800
vn -0.0000 -0.0980 -0.9952
vn -0.0000 0.0980 -0.9952
vn -0.0000 0.8562 0.5167
vn -0.0000 0.7492 0.6623
vn -0.0000 -0.3827 -0.9239
vn -0.0000 -0.7071 -0.7071
vn -0.0000 -0.9239 -0.3827
vn -0.0000 -0.9952 -0.0980
vn -0.0000 0.9239 -0.3827
vn -0.0000 0.7071 -0.7071
vn -0.0000 0.3827 -0.9239
vn -0.0000 -1.0000 -0.0000
vt 0.999402 0.000001
vt 1.000000 0.232778
vt 0.000000 0.000000
vt 0.000598 0.232778
vt 1.000000 0.203599
vt 0.999850 0.186157
vt 0.000447 0.186156
vt 0.000598 0.203598
vt 0.999594 0.062500
vt 0.999465 0.027625
vt 0.999545 0.053173
vt 0.999467 0.038127
vt 0.999506 0.046042
vt 0.999480 0.034673
vt 0.999764 0.108226
vt 0.999658 0.074687
vt 0.999757 0.101690
vt 0.999745 0.091145
vt 0.999785 0.099060
vt 0.999706 0.084014
vt 0.000062 0.027624
vt 0.000192 0.062498
vt 0.000078 0.034671
vt 0.000065 0.038125
vt 0.000104 0.046040
vt 0.000143 0.053171
vt 0.000255 0.074685
vt 0.000362 0.108224
vt 0.000304 0.084012
vt 0.000343 0.091144
vt 0.000382 0.099058
vt 0.000355 0.101688
s 1
f 25/28/1 14/15/1 6/6/2 7/7/2
f 20/22/3 9/9/3 15/16/4 24/27/4
f 5/5/5 8/8/5 7/7/2 6/6/2
f 5/5/5 2/2/6 4/4/6 8/8/5
f 9/9/3 20/22/3 23/26/7 11/11/7
f 11/11/7 23/26/7 22/24/8 12/12/8
f 12/13/8 22/25/8 21/23/9 13/14/9
f 13/14/9 21/23/9 19/21/10 10/10/10
f 14/15/1 25/28/1 28/32/11 16/17/11
f 16/17/11 28/32/11 27/30/12 17/18/12
f 17/19/12 27/31/12 26/29/13 18/20/13
f 18/20/13 26/29/13 24/27/4 15/16/4
f 1/1/14 10/10/10 19/21/10 3/3/14
