# Blender 3.1.0
# www.blender.org
o roof_edge_corner
v 0.085858 0.000000 0.000000
v 0.072624 0.020000 0.072624
v 0.072624 0.020000 0.085858
v 0.000000 0.000000 0.000000
v 0.000000 -0.000000 0.085858
v 0.085858 0.047999 -0.014142
v 0.085858 0.049999 -0.012142
v 0.085858 0.049413 -0.013556
v -0.014142 0.047999 -0.012142
v -0.012142 0.049999 -0.012142
v -0.012142 0.047999 -0.014142
v -0.013556 0.049413 -0.012142
v -0.013297 0.049154 -0.013297
v -0.012142 0.049413 -0.013556
v -0.013556 0.047999 -0.013556
v -0.014142 0.002000 -0.012142
v -0.012142 0.002000 -0.014142
v -0.012142 0.000000 -0.012142
v -0.013556 0.002000 -0.013556
v -0.013297 0.000845 -0.013297
v -0.012142 0.000586 -0.013556
v -0.013556 0.000586 -0.012142
v 0.028000 0.049999 0.028000
v 0.031636 0.048848 0.031636
v 0.029893 0.049662 0.029893
v -0.014142 0.002000 0.085858
v -0.012142 -0.000000 0.085858
v -0.013556 0.000586 0.085858
v -0.012142 0.049999 0.085858
v -0.014142 0.047999 0.085858
v -0.013556 0.049413 0.085858
v 0.031636 0.048848 0.085858
v 0.028000 0.049999 0.085858
v 0.029893 0.049662 0.085858
v 0.085858 0.000586 -0.013556
v 0.085858 0.002000 -0.014142
v 0.085858 0.000000 -0.012142
v 0.085858 0.048848 0.031636
v 0.085858 0.049662 0.029893
v 0.085858 0.049999 0.028000
v 0.085858 0.020000 0.072624
vn 0.0222 0.9995 0.0222
vn -0.0000 0.9961 0.0880
vn -0.0000 0.9808 -0.1951
vn -0.1794 0.9673 -0.1794
vn -0.1794 0.1794 -0.9673
vn -0.0000 0.1951 -0.9808
vn -0.0000 -0.1951 -0.9808
vn -0.1794 -0.1794 -0.9673
vn -0.1951 0.9808 -0.0000
vn 0.0880 0.9961 -0.0000
vn 0.3150 0.8953 0.3150
vn 0.2473 0.9368 0.2473
vn 0.5014 0.8652 -0.0000
vn 0.5755 0.8178 -0.0000
vn -0.1951 -0.9808 -0.0000
vn -0.1794 -0.9673 -0.1794
vn -0.0000 -1.0000 -0.0000
vn -0.9673 0.1794 -0.1794
vn -0.9673 -0.1794 -0.1794
vn -0.9808 -0.1951 -0.0000
vn -0.9808 0.1951 -0.0000
vn -0.0000 0.8178 0.5755
vn -0.0000 0.8652 0.5014
vn -0.6965 0.6965 -0.1726
vn -0.5774 0.5774 -0.5773
vn -0.6965 0.1726 -0.6965
vn -0.1726 0.6965 -0.6965
vn -0.6965 -0.1726 -0.6965
vn -0.5774 -0.5773 -0.5774
vn -0.6965 -0.6965 -0.1726
vn -0.1726 -0.6965 -0.6965
vn -0.0000 0.9534 0.3019
vn 0.1228 0.9848 0.1228
vn -0.7071 -0.7071 -0.0000
vn -0.7071 0.7071 -0.0000
vn 0.3019 0.9534 -0.0000
vn -0.0000 0.7071 -0.7071
vn -0.0000 -0.9808 -0.1951
vn -0.0000 -0.7071 -0.7071
vt 0.585560 -0.482401
vt 0.738884 -2.340895
vt 0.585560 -2.340895
vt 1.580318 -0.482401
vt 0.585560 -0.482401
vt 0.585560 -1.202380
vt 0.585560 -1.248725
vt 0.585560 -1.225553
vt 1.720994 -1.202380
vt 1.720994 -1.248725
vt 1.720994 -1.202380
vt 1.744167 -1.248725
vt 1.720994 -1.225553
vt 1.734373 -1.225553
vt 1.744166 -1.215759
vt 1.720994 -1.225553
vt 1.744166 -1.202380
vt 1.720994 -0.669421
vt 1.720994 -0.669432
vt 1.720994 -0.623087
vt 1.744166 -0.669422
vt 1.744166 -0.656043
vt 1.734373 -0.646249
vt 1.744167 -0.623078
vt 1.720994 -0.646260
vt 1.720994 -0.646249
vt 1.255905 -1.713815
vt 1.213783 -1.760159
vt 1.232732 -1.736987
vt 0.585560 -0.669422
vt 0.585560 -0.623077
vt 0.585560 -0.646249
vt 0.585560 -1.248724
vt 0.585560 -1.202380
vt 0.585560 -1.225553
vt 0.585560 -1.760159
vt 0.585560 -1.713814
vt 0.585560 -1.736987
vt 0.585560 -0.646260
vt 0.585560 -0.669432
vt 0.585560 -0.623087
vt 0.585560 -1.760159
vt 0.585560 -1.736987
vt 0.585560 -1.713814
vt 0.585560 -2.340895
s 1
f 23/27/1 40/44/2 7/7/3 10/10/4
f 11/11/5 6/6/6 36/40/7 17/19/8
f 23/27/1 10/10/4 29/33/9 33/37/10
f 2/2/11 24/28/12 32/36/13 3/3/14
f 27/31/15 18/20/16 4/4/17 5/5/17
f 9/9/18 16/18/19 26/30/20 30/34/21
f 2/2/11 41/45/22 38/42/23 24/28/12
f 9/9/18 12/13/24 13/14/25 15/17/26
f 10/10/4 14/16/27 13/14/25 12/12/24
f 11/11/5 15/17/26 13/15/25 14/16/27
f 16/18/19 19/21/28 20/22/29 22/26/30
f 17/19/8 21/25/31 20/23/29 19/21/28
f 18/20/16 22/26/30 20/23/29 21/24/31
f 24/28/12 38/42/23 39/43/32 25/29/33
f 25/29/33 39/43/32 40/44/2 23/27/1
f 18/20/16 27/31/15 28/32/34 22/26/30
f 22/26/30 28/32/34 26/30/20 16/18/19
f 9/9/18 30/34/21 31/35/35 12/13/24
f 12/13/24 31/35/35 29/33/9 10/10/4
f 23/27/1 33/37/10 34/38/36 25/29/33
f 25/29/33 34/38/36 32/36/13 24/28/12
f 11/11/5 17/19/8 19/21/28 15/17/26
f 15/17/26 19/21/28 16/18/19 9/9/18
f 10/10/4 7/7/3 8/8/37 14/16/27
f 14/16/27 8/8/37 6/6/6 11/11/5
f 37/41/38 18/20/16 21/25/31 35/39/39
f 35/39/39 21/25/31 17/19/8 36/40/7
f 1/1/17 4/4/17 18/20/16 37/41/38
